control3min_grf.mot
version=1
nRows=27
nColumns 19
inDegrees=yes
endheader
time	1_ground_force_vx	1_ground_force_vy	1_ground_force_vz	1_ground_force_px	1_ground_force_py	1_ground_force_pz	1_ground_torque_x	1_ground_torque_y	1_ground_torque_z	2_ground_force_vx	2_ground_force_vy	2_ground_force_vz	2_ground_force_px	2_ground_force_py	2_ground_force_pz	2_ground_torque_x	2_ground_torque_y	2_ground_torque_z
            3.751500	           20.783721	          536.030664	          -62.365956	           -0.215421	            0.006274	           -0.416360	            0.060638	            1.563917	           -0.181958	           -2.039654	          635.872598	           51.778531	           -0.201328	            0.005745	           -0.694427	            0.004168	           -1.299373	           -0.105807
            3.752000	           20.323753	          540.718724	          -62.619864	           -0.215411	            0.006275	           -0.416690	            0.058130	            1.546565	           -0.179105	           -2.383616	          640.291415	           51.653656	           -0.201178	            0.005746	           -0.694624	            0.005219	           -1.401858	           -0.113091
            3.752500	           20.504954	          544.506803	          -63.200211	           -0.215681	            0.006276	           -0.416918	            0.060493	            1.606390	           -0.186452	           -2.020863	          643.608214	           51.477611	           -0.200964	            0.005746	           -0.694175	            0.005026	           -1.600632	           -0.128023
            3.753000	           20.136342	          550.997476	          -63.446617	           -0.215595	            0.006273	           -0.416258	            0.061744	            1.689516	           -0.194545	           -2.082937	          647.842840	           51.633527	           -0.201227	            0.005745	           -0.694391	            0.005153	           -1.602619	           -0.127730
            3.753500	           19.768421	          553.702661	          -63.709240	           -0.215527	            0.006275	           -0.416812	            0.062888	            1.761456	           -0.202674	           -2.234826	          650.973242	           51.550901	           -0.201119	            0.005746	           -0.694367	            0.005459	           -1.590063	           -0.125918
            3.754000	           19.309576	          557.848063	          -63.552752	           -0.215649	            0.006276	           -0.416944	            0.063659	            1.839078	           -0.209517	           -2.387442	          654.288226	           51.328148	           -0.201164	            0.005745	           -0.694096	            0.005765	           -1.580005	           -0.123950
            3.754500	           18.987686	          563.255910	          -63.528767	           -0.215578	            0.006274	           -0.416559	            0.062332	            1.849039	           -0.208550	           -2.962207	          657.784550	           51.481655	           -0.201049	            0.005745	           -0.694180	            0.006887	           -1.529377	           -0.119697
            3.755000	           18.619439	          566.502255	          -63.880791	           -0.215611	            0.006277	           -0.417090	            0.060530	            1.841634	           -0.207669	           -2.740647	          661.284754	           51.353256	           -0.201226	            0.005744	           -0.693925	            0.006998	           -1.688425	           -0.131118
            3.755500	           18.344260	          570.286829	          -63.634600	           -0.215400	            0.006277	           -0.417122	            0.057805	            1.797040	           -0.200520	           -2.755953	          665.520219	           51.321439	           -0.201323	            0.005744	           -0.694108	            0.007644	           -1.845873	           -0.142344
            3.756000	           18.342901	          574.614188	          -63.845325	           -0.215549	            0.006277	           -0.417090	            0.060776	            1.903886	           -0.211541	           -2.951493	          667.730691	           50.953979	           -0.201117	            0.005744	           -0.694035	            0.008134	           -1.840227	           -0.140426
            3.756500	           17.790955	          578.401535	          -64.286294	           -0.215692	            0.006278	           -0.417426	            0.060882	            1.979333	           -0.219992	           -3.058423	          671.412787	           51.107944	           -0.201283	            0.005744	           -0.693933	            0.008598	           -1.887489	           -0.143676
            3.757000	           17.332239	          583.087432	          -64.035783	           -0.215681	            0.006277	           -0.417162	            0.063456	            2.134770	           -0.234445	           -3.350239	          674.358815	           50.930864	           -0.201281	            0.005743	           -0.693846	            0.009351	           -1.882190	           -0.142152
            3.757500	           16.369159	          585.791004	          -63.975932	           -0.215692	            0.006279	           -0.417535	            0.061966	            2.217546	           -0.242185	           -3.783831	          677.671901	           50.989799	           -0.201159	            0.005743	           -0.693752	            0.010297	           -1.844097	           -0.138755
            3.758000	           15.818643	          590.477080	          -63.771046	           -0.215818	            0.006277	           -0.417191	            0.058663	            2.189760	           -0.236492	           -4.075043	          680.434230	           50.671278	           -0.201253	            0.005742	           -0.693546	            0.011404	           -1.904249	           -0.141808
            3.758500	           15.542146	          593.362851	          -64.124843	           -0.215644	            0.006279	           -0.417699	            0.056651	            2.162797	           -0.233734	           -4.414209	          683.562951	           50.870300	           -0.201199	            0.005743	           -0.693829	            0.012499	           -1.935471	           -0.144036
            3.759000	           15.175232	          596.787011	          -63.925823	           -0.215745	            0.006279	           -0.417731	            0.054921	            2.159834	           -0.231354	           -4.987042	          686.507294	           50.881052	           -0.201155	            0.005743	           -0.693742	            0.015051	           -2.071838	           -0.153556
            3.759500	           14.670217	          601.473563	          -63.858623	           -0.215941	            0.006278	           -0.417334	            0.054255	            2.224444	           -0.236170	           -5.187151	          690.006021	           50.705903	           -0.201228	            0.005743	           -0.693661	            0.015873	           -2.111489	           -0.155165
            3.760000	           14.302815	          605.078806	          -63.842254	           -0.216036	            0.006278	           -0.417479	            0.057494	            2.432265	           -0.256630	           -5.759402	          692.766954	           50.528286	           -0.201081	            0.005743	           -0.693621	            0.017595	           -2.116458	           -0.154368
            3.760500	           13.797821	          607.783178	          -63.921127	           -0.215861	            0.006280	           -0.417938	            0.056770	            2.500669	           -0.262998	           -5.960073	          696.449046	           50.588435	           -0.201241	            0.005742	           -0.693578	            0.018587	           -2.171913	           -0.157763
            3.761000	           12.926374	          611.387930	          -63.811786	           -0.215780	            0.006280	           -0.417868	            0.053096	            2.511325	           -0.262112	           -6.482048	          698.288547	           50.642153	           -0.201110	            0.005742	           -0.693408	            0.019939	           -2.147968	           -0.155778
            3.761500	           12.283851	          614.092154	          -63.890318	           -0.215751	            0.006281	           -0.418141	            0.050359	            2.517553	           -0.261927	           -6.913769	          701.050033	           50.417547	           -0.201145	            0.005742	           -0.693475	            0.022090	           -2.239865	           -0.161085
            3.762000	           11.688031	          617.695976	          -63.552385	           -0.216055	            0.006281	           -0.418174	            0.047344	            2.502039	           -0.257425	           -7.672610	          703.624916	           50.567849	           -0.201015	            0.005743	           -0.693425	            0.024706	           -2.265684	           -0.162829
            3.762500	           11.228892	          622.202363	          -63.486071	           -0.216060	            0.006281	           -0.418048	            0.045635	            2.528656	           -0.258010	           -8.194605	          705.464584	           50.574639	           -0.201033	            0.005742	           -0.693308	            0.027567	           -2.373189	           -0.170133
            3.763000	           10.541503	          624.544413	          -63.199173	           -0.216133	            0.006281	           -0.418232	            0.043949	            2.603824	           -0.263487	           -8.814973	          708.593006	           50.539140	           -0.200982	            0.005743	           -0.693501	            0.030108	           -2.420214	           -0.172617
            3.763500	            9.990780	          627.248580	          -63.232065	           -0.216260	            0.006282	           -0.418341	            0.043127	            2.707638	           -0.272953	           -8.913263	          709.881211	           50.684564	           -0.200988	            0.005741	           -0.693067	            0.030018	           -2.390770	           -0.170698
            3.764000	            9.348922	          630.672490	          -62.986510	           -0.216176	            0.006282	           -0.418424	            0.041588	            2.805470	           -0.280188	           -9.346334	          713.011268	           50.414344	           -0.201050	            0.005742	           -0.693235	            0.031103	           -2.372753	           -0.167768
            3.764500	            8.615315	          633.195417	          -62.836297	           -0.216060	            0.006283	           -0.418481	            0.038112	            2.801119	           -0.277974	           -9.494818	          715.220114	           50.516145	           -0.200932	            0.005743	           -0.693353	            0.032012	           -2.411409	           -0.170318
